<svg xmlns="http://www.w3.org/2000/svg" xmlns:xlink="http://www.w3.org/1999/xlink" id="visual" version="1.1" viewBox="0 26.15 1440 74.85"><path d="M0 48L34.3 43C68.7 38 137.3 28 205.8 28C274.3 28 342.7 38 411.2 40.8C479.7 43.7 548.3 39.3 617 38C685.7 36.7 754.3 38.3 823 36C891.7 33.7 960.3 27.3 1028.8 26.3C1097.3 25.3 1165.7 29.7 1234.2 31.2C1302.7 32.7 1371.3 31.3 1405.7 30.7L1440 30L1440 101L1405.7 101C1371.3 101 1302.7 101 1234.2 101C1165.7 101 1097.3 101 1028.8 101C960.3 101 891.7 101 823 101C754.3 101 685.7 101 617 101C548.3 101 479.7 101 411.2 101C342.7 101 274.3 101 205.8 101C137.3 101 68.7 101 34.3 101L0 101Z" fill="#0f0810"/><path d="M0 42L34.3 42.5C68.7 43 137.3 44 205.8 45C274.3 46 342.7 47 411.2 45C479.7 43 548.3 38 617 37C685.7 36 754.3 39 823 39C891.7 39 960.3 36 1028.8 38.8C1097.3 41.7 1165.7 50.3 1234.2 52.2C1302.7 54 1371.3 49 1405.7 46.5L1440 44L1440 101L1405.7 101C1371.3 101 1302.7 101 1234.2 101C1165.7 101 1097.3 101 1028.8 101C960.3 101 891.7 101 823 101C754.3 101 685.7 101 617 101C548.3 101 479.7 101 411.2 101C342.7 101 274.3 101 205.8 101C137.3 101 68.7 101 34.3 101L0 101Z" fill="#110a12"/><path d="M0 66L34.3 65.8C68.7 65.7 137.3 65.3 205.8 65.8C274.3 66.3 342.7 67.7 411.2 64.5C479.7 61.3 548.3 53.7 617 52.8C685.7 52 754.3 58 823 58.3C891.7 58.7 960.3 53.3 1028.8 52.2C1097.3 51 1165.7 54 1234.2 54.8C1302.7 55.7 1371.3 54.3 1405.7 53.7L1440 53L1440 101L1405.7 101C1371.3 101 1302.7 101 1234.2 101C1165.7 101 1097.3 101 1028.8 101C960.3 101 891.7 101 823 101C754.3 101 685.7 101 617 101C548.3 101 479.7 101 411.2 101C342.7 101 274.3 101 205.8 101C137.3 101 68.7 101 34.3 101L0 101Z" fill="#130b14"/><path d="M0 60L34.3 61C68.7 62 137.3 64 205.8 67.3C274.3 70.7 342.7 75.3 411.2 74.7C479.7 74 548.3 68 617 67.2C685.7 66.3 754.3 70.7 823 70.2C891.7 69.7 960.3 64.3 1028.8 63C1097.3 61.7 1165.7 64.3 1234.2 66.7C1302.7 69 1371.3 71 1405.7 72L1440 73L1440 101L1405.7 101C1371.3 101 1302.7 101 1234.2 101C1165.7 101 1097.3 101 1028.8 101C960.3 101 891.7 101 823 101C754.3 101 685.7 101 617 101C548.3 101 479.7 101 411.2 101C342.7 101 274.3 101 205.8 101C137.3 101 68.7 101 34.3 101L0 101Z" fill="#271a29"/><path d="M0 88L34.3 87.8C68.7 87.7 137.3 87.3 205.8 85.7C274.3 84 342.7 81 411.2 81C479.7 81 548.3 84 617 85C685.7 86 754.3 85 823 85.5C891.7 86 960.3 88 1028.8 88.2C1097.3 88.3 1165.7 86.7 1234.2 85.8C1302.7 85 1371.3 85 1405.7 85L1440 85L1440 101L1405.7 101C1371.3 101 1302.7 101 1234.2 101C1165.7 101 1097.3 101 1028.8 101C960.3 101 891.7 101 823 101C754.3 101 685.7 101 617 101C548.3 101 479.7 101 411.2 101C342.7 101 274.3 101 205.8 101C137.3 101 68.7 101 34.3 101L0 101Z" fill="#3c2740"/></svg>