<svg id="visual" viewBox="0 0 1440 75" width="1440" height="75" xmlns="http://www.w3.org/2000/svg" xmlns:xlink="http://www.w3.org/1999/xlink" version="1.1"><path d="M0 14L21.8 13C43.7 12 87.3 10 131 10.3C174.7 10.7 218.3 13.3 262 13.5C305.7 13.7 349.3 11.3 393 10C436.7 8.7 480.3 8.3 524 8.8C567.7 9.3 611.3 10.7 654.8 11.3C698.3 12 741.7 12 785.2 11C828.7 10 872.3 8 916 8C959.7 8 1003.3 10 1047 10.3C1090.7 10.7 1134.3 9.3 1178 10.3C1221.7 11.3 1265.3 14.7 1309 14.8C1352.7 15 1396.3 12 1418.2 10.5L1440 9L1440 0L1418.2 0C1396.3 0 1352.7 0 1309 0C1265.3 0 1221.7 0 1178 0C1134.3 0 1090.7 0 1047 0C1003.3 0 959.7 0 916 0C872.3 0 828.7 0 785.2 0C741.7 0 698.3 0 654.8 0C611.3 0 567.7 0 524 0C480.3 0 436.7 0 393 0C349.3 0 305.7 0 262 0C218.3 0 174.7 0 131 0C87.3 0 43.7 0 21.8 0L0 0Z" fill="#3c2740"></path><path d="M0 21L21.8 20.5C43.7 20 87.3 19 131 19.7C174.7 20.3 218.3 22.7 262 24.2C305.7 25.7 349.3 26.3 393 25.5C436.7 24.7 480.3 22.3 524 23.3C567.7 24.3 611.3 28.7 654.8 29.3C698.3 30 741.7 27 785.2 24.5C828.7 22 872.3 20 916 20.2C959.7 20.3 1003.3 22.7 1047 24C1090.7 25.3 1134.3 25.7 1178 26C1221.7 26.3 1265.3 26.7 1309 26.5C1352.7 26.3 1396.3 25.7 1418.2 25.3L1440 25L1440 7L1418.2 8.5C1396.3 10 1352.7 13 1309 12.8C1265.3 12.7 1221.7 9.3 1178 8.3C1134.3 7.3 1090.7 8.7 1047 8.3C1003.3 8 959.7 6 916 6C872.3 6 828.7 8 785.2 9C741.7 10 698.3 10 654.8 9.3C611.3 8.7 567.7 7.3 524 6.8C480.3 6.3 436.7 6.7 393 8C349.3 9.3 305.7 11.7 262 11.5C218.3 11.3 174.7 8.7 131 8.3C87.3 8 43.7 10 21.8 11L0 12Z" fill="#2f1f32"></path><path d="M0 51L21.8 48.3C43.7 45.7 87.3 40.3 131 40.8C174.7 41.3 218.3 47.7 262 51.8C305.7 56 349.3 58 393 57C436.7 56 480.3 52 524 52.3C567.7 52.7 611.3 57.3 654.8 58.7C698.3 60 741.7 58 785.2 55.2C828.7 52.3 872.3 48.7 916 47.3C959.7 46 1003.3 47 1047 48.5C1090.7 50 1134.3 52 1178 52.5C1221.7 53 1265.3 52 1309 52.7C1352.7 53.3 1396.3 55.7 1418.2 56.8L1440 58L1440 23L1418.2 23.3C1396.3 23.7 1352.7 24.3 1309 24.5C1265.3 24.7 1221.7 24.3 1178 24C1134.3 23.7 1090.7 23.3 1047 22C1003.3 20.7 959.7 18.3 916 18.2C872.3 18 828.7 20 785.2 22.5C741.7 25 698.3 28 654.8 27.3C611.3 26.7 567.7 22.3 524 21.3C480.3 20.3 436.7 22.7 393 23.5C349.3 24.3 305.7 23.7 262 22.2C218.3 20.7 174.7 18.3 131 17.7C87.3 17 43.7 18 21.8 18.5L0 19Z" fill="#231725"></path><path d="M0 66L21.8 65.5C43.7 65 87.3 64 131 64C174.7 64 218.3 65 262 66.3C305.7 67.7 349.3 69.3 393 70.2C436.7 71 480.3 71 524 71C567.7 71 611.3 71 654.8 70.7C698.3 70.3 741.7 69.7 785.2 68.5C828.7 67.3 872.3 65.7 916 65.7C959.7 65.7 1003.3 67.3 1047 68.7C1090.7 70 1134.3 71 1178 71.5C1221.7 72 1265.3 72 1309 71.5C1352.7 71 1396.3 70 1418.2 69.5L1440 69L1440 56L1418.2 54.8C1396.3 53.7 1352.7 51.3 1309 50.7C1265.3 50 1221.7 51 1178 50.5C1134.3 50 1090.7 48 1047 46.5C1003.3 45 959.7 44 916 45.3C872.3 46.7 828.7 50.3 785.2 53.2C741.7 56 698.3 58 654.8 56.7C611.3 55.3 567.7 50.7 524 50.3C480.3 50 436.7 54 393 55C349.3 56 305.7 54 262 49.8C218.3 45.7 174.7 39.3 131 38.8C87.3 38.3 43.7 43.7 21.8 46.3L0 49Z" fill="#180e19"></path><path d="M0 76L21.8 76C43.7 76 87.3 76 131 76C174.7 76 218.3 76 262 76C305.7 76 349.3 76 393 76C436.7 76 480.3 76 524 76C567.7 76 611.3 76 654.8 76C698.3 76 741.7 76 785.2 76C828.7 76 872.3 76 916 76C959.7 76 1003.3 76 1047 76C1090.7 76 1134.3 76 1178 76C1221.7 76 1265.3 76 1309 76C1352.7 76 1396.3 76 1418.2 76L1440 76L1440 67L1418.2 67.5C1396.3 68 1352.7 69 1309 69.5C1265.3 70 1221.7 70 1178 69.5C1134.3 69 1090.7 68 1047 66.7C1003.3 65.3 959.7 63.7 916 63.7C872.3 63.7 828.7 65.3 785.2 66.5C741.7 67.7 698.3 68.3 654.8 68.7C611.3 69 567.7 69 524 69C480.3 69 436.7 69 393 68.2C349.3 67.3 305.7 65.7 262 64.3C218.3 63 174.7 62 131 62C87.3 62 43.7 63 21.8 63.5L0 64Z" fill="#09000a"></path></svg>