<svg xmlns="http://www.w3.org/2000/svg" xmlns:xlink="http://www.w3.org/1999/xlink" id="visual" viewBox="0 0 1440 75" width="1440" height="75" version="1.1"><path d="M0 12L21.8 12.5C43.7 13 87.3 14 131 14.3C174.7 14.7 218.3 14.3 262 14.5C305.7 14.7 349.3 15.3 393 15.8C436.7 16.3 480.3 16.7 524 15.5C567.7 14.3 611.3 11.7 654.8 12.3C698.3 13 741.7 17 785.2 17C828.7 17 872.3 13 916 13C959.7 13 1003.3 17 1047 18.2C1090.7 19.3 1134.3 17.7 1178 17.7C1221.7 17.7 1265.3 19.3 1309 18.8C1352.7 18.3 1396.3 15.7 1418.2 14.3L1440 13L1440 0L1418.2 0C1396.3 0 1352.7 0 1309 0C1265.3 0 1221.7 0 1178 0C1134.3 0 1090.7 0 1047 0C1003.3 0 959.7 0 916 0C872.3 0 828.7 0 785.2 0C741.7 0 698.3 0 654.8 0C611.3 0 567.7 0 524 0C480.3 0 436.7 0 393 0C349.3 0 305.7 0 262 0C218.3 0 174.7 0 131 0C87.3 0 43.7 0 21.8 0L0 0Z" fill="#130b14"/><path d="M0 25L21.8 25.2C43.7 25.3 87.3 25.7 131 25.2C174.7 24.7 218.3 23.3 262 22.5C305.7 21.7 349.3 21.3 393 21.3C436.7 21.3 480.3 21.7 524 20.7C567.7 19.7 611.3 17.3 654.8 18.3C698.3 19.3 741.7 23.7 785.2 24C828.7 24.3 872.3 20.7 916 21.2C959.7 21.7 1003.3 26.3 1047 27.8C1090.7 29.3 1134.3 27.7 1178 27C1221.7 26.3 1265.3 26.7 1309 26.3C1352.7 26 1396.3 25 1418.2 24.5L1440 24L1440 11L1418.2 12.3C1396.3 13.7 1352.7 16.3 1309 16.8C1265.3 17.3 1221.7 15.7 1178 15.7C1134.3 15.7 1090.7 17.3 1047 16.2C1003.3 15 959.7 11 916 11C872.3 11 828.7 15 785.2 15C741.7 15 698.3 11 654.8 10.3C611.3 9.7 567.7 12.3 524 13.5C480.3 14.7 436.7 14.3 393 13.8C349.3 13.3 305.7 12.7 262 12.5C218.3 12.3 174.7 12.7 131 12.3C87.3 12 43.7 11 21.8 10.5L0 10Z" fill="#110912"/><path d="M0 38L21.8 40.2C43.7 42.3 87.3 46.7 131 49.3C174.7 52 218.3 53 262 50.5C305.7 48 349.3 42 393 39.5C436.7 37 480.3 38 524 39.8C567.7 41.7 611.3 44.3 654.8 46.5C698.3 48.7 741.7 50.3 785.2 48C828.7 45.7 872.3 39.3 916 40.5C959.7 41.7 1003.3 50.3 1047 50.8C1090.7 51.3 1134.3 43.7 1178 43.2C1221.7 42.7 1265.3 49.3 1309 52.7C1352.7 56 1396.3 56 1418.2 56L1440 56L1440 22L1418.2 22.5C1396.3 23 1352.7 24 1309 24.3C1265.3 24.7 1221.7 24.3 1178 25C1134.3 25.7 1090.7 27.3 1047 25.8C1003.3 24.3 959.7 19.7 916 19.2C872.3 18.7 828.7 22.3 785.2 22C741.7 21.7 698.3 17.3 654.8 16.3C611.3 15.3 567.7 17.7 524 18.7C480.3 19.7 436.7 19.3 393 19.3C349.3 19.3 305.7 19.7 262 20.5C218.3 21.3 174.7 22.7 131 23.2C87.3 23.7 43.7 23.3 21.8 23.2L0 23Z" fill="#0f0610"/><path d="M0 69L21.8 68.7C43.7 68.3 87.3 67.7 131 67.2C174.7 66.7 218.3 66.3 262 65.2C305.7 64 349.3 62 393 61.7C436.7 61.3 480.3 62.7 524 63.7C567.7 64.7 611.3 65.3 654.8 65.7C698.3 66 741.7 66 785.2 65.5C828.7 65 872.3 64 916 64.5C959.7 65 1003.3 67 1047 66.7C1090.7 66.3 1134.3 63.7 1178 63.7C1221.7 63.7 1265.3 66.3 1309 67.3C1352.7 68.3 1396.3 67.7 1418.2 67.3L1440 67L1440 54L1418.2 54C1396.3 54 1352.7 54 1309 50.7C1265.3 47.3 1221.7 40.7 1178 41.2C1134.3 41.7 1090.7 49.3 1047 48.8C1003.3 48.3 959.7 39.7 916 38.5C872.3 37.3 828.7 43.7 785.2 46C741.7 48.3 698.3 46.7 654.8 44.5C611.3 42.3 567.7 39.7 524 37.8C480.3 36 436.7 35 393 37.5C349.3 40 305.7 46 262 48.5C218.3 51 174.7 50 131 47.3C87.3 44.7 43.7 40.3 21.8 38.2L0 36Z" fill="#0c030d"/><path d="M0 76L21.8 76C43.7 76 87.3 76 131 76C174.7 76 218.3 76 262 76C305.7 76 349.3 76 393 76C436.7 76 480.3 76 524 76C567.7 76 611.3 76 654.8 76C698.3 76 741.7 76 785.2 76C828.7 76 872.3 76 916 76C959.7 76 1003.3 76 1047 76C1090.7 76 1134.3 76 1178 76C1221.7 76 1265.3 76 1309 76C1352.7 76 1396.3 76 1418.2 76L1440 76L1440 65L1418.2 65.3C1396.3 65.7 1352.7 66.3 1309 65.3C1265.3 64.3 1221.7 61.7 1178 61.7C1134.3 61.7 1090.7 64.3 1047 64.7C1003.3 65 959.7 63 916 62.5C872.3 62 828.7 63 785.2 63.5C741.7 64 698.3 64 654.8 63.7C611.3 63.3 567.7 62.7 524 61.7C480.3 60.7 436.7 59.3 393 59.7C349.3 60 305.7 62 262 63.2C218.3 64.3 174.7 64.7 131 65.2C87.3 65.7 43.7 66.3 21.8 66.7L0 67Z" fill="#09000a"/></svg>